<svg width="60" height="44" viewBox="0 0 60 44" fill="none" xmlns="http://www.w3.org/2000/svg">
<path fill-rule="evenodd" clip-rule="evenodd" d="M1.5919 2.98299C-0.405882 4.59592 0.23304 12.6877 0.641323 16.4329C1.08852 20.4434 1.90356 23.0955 4.21659 24.9619C5.82714 26.2534 7.25009 26.1773 8.11015 24.2647C8.66666 22.5172 8.66593 20.5352 7.86763 18.7291C6.97144 15.6329 7.32055 7.63764 7.32281 2.90116C7.33981 0.578035 5.10567 0.61697 3.91051 2.16296C3.41171 2.72151 2.14814 2.58763 1.5919 2.98299Z" fill="#FFED00"/>
<path fill-rule="evenodd" clip-rule="evenodd" d="M11.8194 10.1928C10.6609 10.4822 8.53652 11.5426 9.25852 14.3817C9.79803 16.9739 8.33849 20.2622 10.6713 20.9714C11.0466 21.1341 12.4034 21.4787 12.4817 21.139C12.7174 20.2538 14.5056 21.0389 15.175 21.3474C16.4215 21.8412 17.9192 21.8738 19.3256 21.4457C21.4795 20.8569 20.8251 17.4618 19.4855 17.2921C17.4102 17.1166 14.8537 18.3527 13.5319 16.9208C15.5221 16.9323 17.5122 16.9441 19.5023 16.8865C20.9331 16.9035 21.7703 16.2582 22.0823 15.5422C22.4328 14.8646 23.3537 15.3073 23.3371 14.5788C23.3191 13.768 20.1089 12.9615 20.1737 10.6558C20.1618 9.70894 16.8123 7.3936 15.1562 9.19063C14.8493 9.60826 13.1765 10.0473 11.8194 10.1927V10.1928ZM12.9705 14.4324C14.1578 14.1113 15.1818 13.5998 16.5061 13.4042C15.4788 12.4618 14.4741 12.2314 13.7663 13.2157C13.4465 13.7044 13.2901 13.9437 12.9706 14.4324H12.9705Z" fill="#FFED00"/>
<path fill-rule="evenodd" clip-rule="evenodd" d="M23.4401 12.0638C24.7181 15.3558 25.7831 18.7997 28.0549 21.4189C28.899 22.6343 32.133 23.2206 32.0069 20.7678C33.3323 18.8505 34.6576 16.9329 35.9826 15.0156C36.5427 13.9811 35.8723 12.8161 35.2491 12.3026C35.604 9.99437 33.1428 9.40126 32.3381 11.6949C31.6677 13.2576 30.997 14.8203 30.3266 16.3833C30.0152 17.2449 29.5296 17.3769 29.0725 16.4484C28.2915 14.7552 27.5105 13.0622 26.7295 11.3691C25.42 8.75719 22.8326 10.747 23.44 12.0639L23.4401 12.0638Z" fill="#FFED00"/>
<path fill-rule="evenodd" clip-rule="evenodd" d="M38.1123 19.8349C38.4837 20.5104 39.2354 20.9677 40.0825 21.076C40.9058 20.9345 41.1707 20.8041 41.5546 20.3577C42.7614 20.9345 44.3361 21.6205 45.7092 21.5334C46.8545 21.5407 47.8572 21.461 48.6703 20.706C49.177 19.609 48.9479 18.7296 48.4102 17.5887C47.1846 17.3018 46.1133 17.8967 44.7809 17.9255C43.6874 17.8424 41.9647 17.5309 41.999 16.8925C44.399 16.4213 47.0242 16.8753 49.4833 16.5889C50.1029 16.1119 50.7344 15.4937 50.8079 14.7666C50.5343 13.236 49.7385 11.8689 48.7768 10.5342C47.8209 9.76613 46.7465 9.00888 45.5534 8.75232C42.4955 9.2651 38.6289 10.5198 38.0915 11.9923C37.6227 14.7809 38.2956 17.177 38.1123 19.8349L38.1123 19.8349ZM41.4081 14.2904C41.7539 13.5331 42.4081 12.7106 43.3711 12.2146C44.1114 12.474 44.7925 12.8644 45.0225 13.2873C43.9009 13.9047 42.601 14.1955 41.4081 14.2904Z" fill="#FFED00"/>
<path fill-rule="evenodd" clip-rule="evenodd" d="M52.1219 1.83345C52.3192 8.52911 50.8525 16.8615 52.8595 21.7248C54.5166 23.5412 58.4063 26.143 59.3028 21.331C59.3925 15.2225 59.6674 9.11751 59.3503 3.01072C58.5576 2.74924 57.9787 2.34575 56.9725 2.22573C57.1627 1.52777 56.1701 0.856519 55.8554 0.394217C54.1599 0.25692 53.2004 1.09976 52.122 1.83352L52.1219 1.83345Z" fill="#FFED00"/>
<path fill-rule="evenodd" clip-rule="evenodd" d="M11.7578 24.8509C12.07 28.6411 10.6026 33.5196 11.2895 36.2214C14.2559 38.2739 10.6026 40.842 16.0671 41.8635C20.0951 40.8897 23.3739 39.7156 26.6525 37.5673C29.1348 34.3713 28.904 30.4799 28.3389 26.7126C27.0985 25.7215 26.1009 24.221 24.2795 24.3068C23.0928 24.937 21.7479 25.7382 21.3731 26.8266C21.6022 28.0676 22.4267 31.085 22.0623 34.1304C21.3128 35.2285 19.7516 34.923 18.5964 34.8467C16.9413 32.0971 17.8469 29.2332 17.7531 26.4262C17.3265 25.9393 16.7748 26.5695 16.2857 25.9966C16.0983 24.7746 16.5979 23.5814 14.5058 23.3617C13.3711 23.6289 11.8308 24.2685 11.7578 24.8509H11.7578Z" fill="#FFED00"/>
<path fill-rule="evenodd" clip-rule="evenodd" d="M34.0794 22.0806C32.061 23.1185 31.3098 24.9995 30.4001 26.5023C30.6015 27.5101 30.8977 27.8207 31.8592 27.957C31.7435 31.5448 31.9438 34.9 32.7472 38.197C33.6352 39.1669 34.3016 39.2056 35.0947 39.9422C35.7707 40.9509 35.0848 41.7848 36.2995 42.5609C37.547 42.677 38.6359 42.6767 39.8519 42.2117C40.0837 40.1174 39.1436 38.517 39.3439 36.7132C48.7678 35.208 49.6868 30.0077 50.1917 26.6186C49.5735 21.4551 39.198 22.7416 35.792 23.2442C35.8546 22.4786 35.0304 22.0034 34.0793 22.0806L34.0794 22.0806ZM37.568 31.2739C36.6139 29.8693 36.5498 28.6298 37.4726 26.7641C40.728 26.5225 42.6513 26.8684 44.7998 27.7243C43.1178 29.5854 40.1054 30.72 37.5679 31.2739H37.568Z" fill="#FFED00"/>
<path d="M1.93991 3.29389C1.05594 4.0258 0.752386 6.33403 0.714997 8.91269C0.676613 11.5786 0.937202 14.5234 1.14061 16.3884C1.36049 18.3609 1.66943 19.9955 2.20382 21.3563C2.72832 22.6928 3.47476 23.7715 4.57609 24.6603L4.57662 24.6596C4.85401 24.8819 5.12144 25.0594 5.37592 25.1886C5.82644 25.4175 6.24363 25.5024 6.61352 25.4271C6.97174 25.3544 7.30046 25.1237 7.58695 24.72C7.70768 24.55 7.82011 24.3525 7.92278 24.128C8.1928 23.2739 8.32323 22.3621 8.28325 21.4457C8.2454 20.5838 8.05646 19.7167 7.69061 18.8891L7.67893 18.8632L7.67255 18.8402C6.94344 16.3214 7.01915 10.7241 7.08098 6.14025C7.09698 4.96926 7.11199 3.86446 7.11226 2.90106V2.89791C7.11558 2.45911 7.02812 2.12809 6.88016 1.89482C6.74667 1.68485 6.55754 1.55226 6.34065 1.49051C6.10576 1.42385 5.83348 1.43662 5.55529 1.52084C5.11879 1.65261 4.67617 1.95569 4.33038 2.40289L4.31358 2.42379C3.9541 2.82653 3.37854 2.93371 2.82329 3.03671C2.46813 3.1029 2.12234 3.16718 1.93985 3.29375L1.93991 3.29389ZM0.00395439 8.90381C0.0443976 6.10917 0.417816 3.57395 1.5222 2.68227L1.539 2.66895C1.8494 2.44825 2.26917 2.37004 2.70056 2.29005C3.14013 2.20849 3.59622 2.12345 3.79452 1.90541C4.23435 1.344 4.79923 0.961135 5.35985 0.791939C5.76003 0.670898 6.16294 0.655939 6.52474 0.758741C6.90433 0.866188 7.23558 1.1 7.47146 1.47132C7.69573 1.82433 7.82788 2.29948 7.82357 2.90406C7.82303 3.87607 7.80803 4.97957 7.79229 6.14926C7.73126 10.6661 7.65681 16.1785 8.34727 18.5968C8.74619 19.5094 8.95285 20.4644 8.99429 21.4134C9.03879 22.4311 8.89335 23.4421 8.59285 24.3864L8.588 24.4012L8.57605 24.4279C8.44662 24.7158 8.30603 24.965 8.15581 25.1765C7.75716 25.738 7.28127 26.0625 6.74714 26.171C6.22417 26.2772 5.65929 26.17 5.06898 25.8703C4.76596 25.7162 4.45729 25.5131 4.14715 25.2641V25.2625C2.93598 24.2853 2.11789 23.1049 1.54538 21.6466C0.982228 20.2125 0.659346 18.5146 0.43236 16.4773V16.4757C0.227421 14.5958 -0.0354262 11.6218 0.00395439 8.90381Z" fill="#2B2A29"/>
<path d="M12.0301 10.5659C11.992 10.5756 11.9526 10.586 11.9127 10.5975C11.3836 10.7494 10.6919 11.0627 10.2063 11.6276H10.2048C9.73572 12.1734 9.45607 12.9753 9.71234 14.1332C9.7233 14.1827 9.73525 14.2334 9.7482 14.2838L9.75099 14.3003C9.95081 15.2597 9.89364 16.2767 9.83971 17.2374C9.75099 18.8192 9.6719 20.2292 10.9143 20.6068L10.9324 20.6123L10.9505 20.6201C11.0471 20.662 11.2177 20.7177 11.4139 20.7686C11.6573 20.8319 11.9366 20.8879 12.1614 20.9018V20.902C12.2557 20.9091 12.2628 21.0747 12.2885 21.0202C12.4822 20.3301 13.1529 20.2629 13.8836 20.4251C14.4668 20.5542 15.0973 20.8333 15.4478 20.9946C16.0316 21.2253 16.6758 21.3486 17.3396 21.3641C18.0094 21.3801 18.7012 21.2857 19.3731 21.0811L19.383 21.0796C19.895 20.94 20.2096 20.6057 20.3699 20.2015C20.4876 19.9052 20.5273 19.5657 20.5047 19.231C20.4816 18.8916 20.3951 18.5629 20.2612 18.2907C20.0939 17.951 19.8582 17.7066 19.5963 17.6694C18.9051 17.6124 18.1418 17.7204 17.3932 17.8269C15.8731 18.0426 14.4065 18.251 13.4233 17.1859L12.8203 16.5327L13.6801 16.5426L13.693 16.5429C15.674 16.5542 17.6555 16.5659 19.639 16.5086H19.6505C20.2509 16.5156 20.7309 16.3977 21.0983 16.2063C21.502 15.9958 21.7672 15.6964 21.9037 15.3834L21.9149 15.3598C22.1582 14.8888 22.5367 14.7997 22.8731 14.7205C23.0101 14.6883 23.1284 14.6601 23.1268 14.5876C23.1248 14.4903 22.7562 14.2403 22.2955 13.9281C21.2824 13.2414 19.9223 12.3191 19.9632 10.6552C19.9583 10.5516 19.8351 10.3735 19.6335 10.1633C19.3391 9.85706 18.9023 9.53854 18.4045 9.29694C17.9118 9.05766 17.3649 8.89714 16.8493 8.90445C16.3721 8.91128 15.9181 9.06661 15.5626 9.44783C15.3539 9.70439 14.848 9.94101 14.2223 10.1291C13.57 10.3249 12.7582 10.4855 12.0301 10.5657L12.0301 10.5659ZM11.7284 9.86532C11.7818 9.85016 11.8339 9.83602 11.8837 9.82373L11.9 9.81956L11.9297 9.81642C12.6231 9.74217 13.4028 9.58841 14.0297 9.40008C14.5417 9.24633 14.9263 9.0871 15.0211 8.95786L15.0349 8.93901L15.0476 8.92515C15.5504 8.37965 16.182 8.15792 16.841 8.14849C17.4699 8.13961 18.1213 8.32814 18.7001 8.60923C19.2745 8.88799 19.7845 9.26142 20.1327 9.62413C20.468 9.97298 20.6707 10.3396 20.6745 10.6513V10.6659C20.6397 11.9091 21.8078 12.7011 22.6779 13.2908C23.3162 13.7236 23.827 14.07 23.8382 14.5698C23.8534 15.2633 23.4705 15.354 23.0264 15.4586C22.8418 15.502 22.6344 15.5511 22.5433 15.7172C22.342 16.1693 21.9677 16.5945 21.4107 16.8848C21.1097 17.0417 20.7542 17.1591 20.3437 17.2195C20.5623 17.4004 20.7479 17.6499 20.8913 17.9409C21.0706 18.3049 21.1862 18.7375 21.2157 19.1776C21.2462 19.6221 21.1898 20.0813 21.0255 20.495C20.7848 21.1009 20.3201 21.6003 19.5682 21.8087L19.5685 21.81C18.8322 22.0342 18.0691 22.1372 17.3254 22.1197C16.5808 22.1022 15.8557 21.9628 15.1962 21.7016L15.1794 21.6943C14.8578 21.546 14.268 21.2832 13.7382 21.1658C13.3545 21.0808 13.0175 21.0617 12.9699 21.2411C12.9651 21.2591 12.9595 21.2759 12.9534 21.2921L12.9521 21.2982C12.8392 21.5921 12.5153 21.682 12.1208 21.6574H12.1195C11.8508 21.6407 11.5259 21.5764 11.2463 21.5037C11.0197 21.4451 10.8199 21.38 10.6986 21.3293C8.92738 20.7778 9.02175 19.088 9.12854 17.1929C9.17941 16.2868 9.233 15.3279 9.05967 14.4793L9.05914 14.4796C9.04413 14.4205 9.03019 14.3619 9.0177 14.3049C8.69734 12.8578 9.06678 11.8314 9.67973 11.1183L9.679 11.1176C10.2757 10.4236 11.1009 10.0455 11.7284 9.86526V9.86532ZM13.987 13.7645L14.2806 13.6631C14.7611 13.496 15.2434 13.3284 15.7656 13.1971C15.5251 13.0572 15.2953 12.9751 15.0822 12.9602C14.7823 12.9393 14.5018 13.0619 14.2588 13.3613C14.2415 13.3825 14.2232 13.4061 14.2044 13.4322L13.987 13.7646L13.987 13.7645ZM14.501 14.3832C14.0737 14.5317 13.6471 14.68 13.2037 14.7998L13.1157 14.4323L12.8228 14.2158L13.6185 12.9993L13.6284 12.986C13.6569 12.946 13.6877 12.9057 13.7202 12.8663C14.1232 12.3699 14.6024 12.1678 15.1269 12.2044C15.613 12.2384 16.1229 12.4863 16.6312 12.899C16.7135 12.9656 16.7982 13.0391 16.8844 13.1181L17.479 13.6644L16.7003 13.7792C15.8985 13.8974 15.1978 14.1411 14.501 14.3832H14.501Z" fill="#2B2A29"/>
<path d="M23.9147 11.9199C24.0962 12.3875 24.2912 12.9065 24.4856 13.4243C25.5305 16.2048 26.5767 18.9887 28.4624 21.1625L28.4679 21.1694L28.486 21.195C28.7522 21.5783 29.3255 21.8921 29.9354 22.0253C30.2826 22.1011 30.6363 22.1149 30.9442 22.0459C31.2183 21.9844 31.4532 21.855 31.6032 21.6416C31.741 21.4452 31.8159 21.1657 31.7966 20.787L31.7895 20.6526L31.8648 20.5437L35.8318 14.8044C36.009 14.4613 36.0128 14.0947 35.9213 13.756C35.7914 13.2746 35.4777 12.8496 35.1766 12.6015L35.0086 12.4632L35.0427 12.2414C35.1381 11.622 34.9979 11.1651 34.7437 10.8981V10.8965C34.6283 10.7752 34.4865 10.692 34.3331 10.6512C34.1768 10.6099 34.0074 10.6123 33.8402 10.6614C33.4454 10.7775 33.0538 11.151 32.8169 11.8264L32.8072 11.8515L30.7968 16.5376C30.6905 16.8263 30.5631 17.0509 30.4205 17.2026C30.2713 17.3613 30.1012 17.4513 29.9153 17.4659H29.9138C29.7272 17.4803 29.5431 17.4178 29.3677 17.2708C29.2073 17.1369 29.0499 16.9228 28.9024 16.6228L28.8984 16.6142L26.56 11.5446C26.1484 10.7253 25.6089 10.4439 25.1218 10.4714C24.9357 10.4816 24.7529 10.537 24.5861 10.6236C24.4173 10.7111 24.2668 10.8297 24.1466 10.9661C23.8941 11.2515 23.7723 11.6105 23.9048 11.8976L23.9147 11.9198V11.9199ZM23.8249 13.7028C23.6432 13.2193 23.4614 12.7358 23.2572 12.2094C22.9944 11.6155 23.1878 10.9448 23.6276 10.4474C23.8071 10.2445 24.0281 10.0693 24.2737 9.94194C24.5205 9.81379 24.7969 9.73196 25.0855 9.71577C25.824 9.67417 26.6213 10.0594 27.1887 11.1911L27.1943 11.2029L29.5342 16.2759C29.6313 16.4728 29.7236 16.6041 29.8085 16.6752C29.8358 16.6983 29.8538 16.7095 29.8622 16.7103C29.8706 16.7097 29.8889 16.6943 29.9153 16.6661C29.9944 16.5824 30.0704 16.4409 30.14 16.2482L30.1484 16.226L32.1556 11.5475C32.4828 10.6273 33.0576 10.1069 33.6504 9.93251C33.9398 9.84754 34.2331 9.84412 34.5056 9.91632C34.7807 9.98928 35.0352 10.1391 35.245 10.3596L35.2457 10.3588C35.6184 10.7506 35.8434 11.3612 35.772 12.1472C36.1208 12.4867 36.4561 12.9887 36.6074 13.5486C36.7493 14.0737 36.7353 14.6511 36.4361 15.2039L36.4223 15.2292L36.4152 15.2394L32.5118 20.887C32.5154 21.3917 32.3893 21.7897 32.1752 22.0951C31.913 22.468 31.5279 22.6885 31.0893 22.7871C30.6845 22.8778 30.231 22.8619 29.793 22.7665C29.0387 22.6017 28.3095 22.1896 27.9338 21.6708C25.9653 19.3989 24.8942 16.5494 23.8249 13.703V13.7028Z" fill="#2B2A29"/>
<path d="M38.621 19.7371C38.7722 19.9745 38.9843 20.1777 39.2362 20.3362C39.524 20.5177 39.8631 20.6411 40.2241 20.6934C40.5725 20.6319 40.8033 20.5731 40.9792 20.4873H40.9807C41.1475 20.4058 41.2785 20.2875 41.4376 20.1024L41.6115 19.9003L41.8461 20.0122C42.4415 20.2967 43.1259 20.6081 43.8179 20.8327C44.4978 21.0537 45.1936 21.1959 45.8335 21.1554H45.8559C46.4048 21.1591 46.9186 21.1418 47.3856 21.0351C47.8031 20.9397 48.1857 20.7692 48.5277 20.4698C48.7217 20.0223 48.7741 19.618 48.7245 19.2125C48.6751 18.81 48.5264 18.3919 48.3151 17.9254C47.7166 17.8271 47.1266 17.951 46.5103 18.0804C46.0176 18.1837 45.5089 18.2907 44.933 18.3033L44.9081 18.3038L44.9007 18.3033C44.2461 18.2536 43.369 18.1228 42.7428 17.8906C42.1622 17.6749 41.7633 17.3488 41.7887 16.8718L41.8045 16.5748L42.0801 16.5207C43.4463 16.2523 44.8675 16.2762 46.2907 16.3002C47.3686 16.3185 48.4484 16.3368 49.4948 16.2233C49.762 16.0125 50.0239 15.7779 50.225 15.5269C50.4138 15.2913 50.5529 15.0392 50.5926 14.778C50.4604 14.0759 50.2102 13.4062 49.882 12.7561C49.5459 12.0906 49.1275 11.4447 48.6691 10.8059C48.212 10.4398 47.7289 10.0787 47.2265 9.78189C46.7366 9.49267 46.2236 9.25995 45.6905 9.13652C44.0469 9.41658 42.1785 9.91058 40.7408 10.5348C39.6367 11.0141 38.8056 11.552 38.5818 12.0944C38.3292 13.6301 38.4324 15.0618 38.5346 16.487C38.6111 17.5537 38.6876 18.6177 38.621 19.7372L38.621 19.7371ZM38.8734 20.9881C38.4857 20.7441 38.1641 20.417 37.9492 20.0263L37.8936 19.9254L37.9017 19.8082C37.9783 18.6989 37.901 17.6229 37.8235 16.5434C37.7167 15.0586 37.6094 13.5675 37.8849 11.9269L37.8903 11.8948L37.9045 11.856C38.1859 11.0851 39.1751 10.3982 40.4727 9.83489C41.9821 9.17983 43.9387 8.66472 45.6443 8.37886L45.7061 8.36841L45.7684 8.38173C46.406 8.51903 47.0065 8.78679 47.5724 9.12074C48.1299 9.45026 48.6498 9.84063 49.1367 10.2318L49.1745 10.2627L49.2048 10.3046C49.696 10.986 50.1459 11.678 50.5093 12.3974C50.8786 13.129 51.1588 13.8895 51.303 14.6967L51.3126 14.7511L51.307 14.8066C51.262 15.254 51.0536 15.6572 50.766 16.016C50.4973 16.3515 50.1642 16.6444 49.8375 16.8957L49.7615 16.9543L49.6659 16.9653C48.5562 17.0944 47.4167 17.0754 46.2793 17.056C45.1411 17.0369 44.0042 17.0178 42.9148 17.1527L42.9771 17.1763C43.5316 17.3821 44.335 17.5002 44.9431 17.5468C45.4363 17.5335 45.9122 17.4334 46.3734 17.3366C47.1174 17.1802 47.8271 17.0312 48.632 17.2197L48.7972 17.2586L48.8735 17.42C49.1587 18.0251 49.3628 18.5664 49.43 19.115C49.4999 19.6872 49.4216 20.2507 49.1346 20.872L49.1026 20.9416L49.0497 20.9907C48.5921 21.4157 48.0847 21.65 47.5335 21.776C47.0156 21.8944 46.4616 21.9146 45.8731 21.9114C45.1411 21.9572 44.3632 21.8003 43.6115 21.556C42.9611 21.3448 42.3365 21.0712 41.7797 20.81C41.6244 20.9648 41.4698 21.0804 41.2773 21.1743L41.2776 21.175C41.028 21.2969 40.729 21.373 40.2838 21.4496L40.2322 21.4585L40.1859 21.4525C39.7092 21.3916 39.258 21.2305 38.8733 20.9881H38.8734ZM41.2326 14.1259C41.4335 13.6855 41.7307 13.2248 42.1225 12.8103C42.4626 12.4504 42.876 12.1236 43.3613 11.8736L43.4915 11.8066L43.6277 11.8543C44.0401 11.9989 44.4393 12.1845 44.7641 12.3953C45.0819 12.6019 45.3357 12.8393 45.476 13.0974L45.6626 13.441L45.3308 13.6235C44.7827 13.9256 44.1934 14.1528 43.5939 14.3191C42.9174 14.5066 42.2314 14.6165 41.5798 14.6685L40.9625 14.7177L41.2326 14.1259L41.2326 14.1259ZM42.6246 13.3469C42.4766 13.5035 42.3447 13.6675 42.229 13.8341C42.6238 13.7768 43.023 13.6957 43.4155 13.5869C43.809 13.4776 44.1983 13.3398 44.572 13.1683C44.5176 13.1259 44.4576 13.0833 44.393 13.0414C44.1536 12.8858 43.8577 12.7438 43.5426 12.6249C43.1882 12.8252 42.8821 13.0747 42.6246 13.3469Z" fill="#2B2A29"/>
<path d="M52.6288 2.03581C52.6798 4.16207 52.5728 6.43315 52.4655 8.7019C52.238 13.5072 52.0115 18.3046 53.306 21.5111C53.88 22.1293 54.7111 22.8309 55.5798 23.2723C56.1524 23.5633 56.7376 23.7385 57.2631 23.6917C57.7508 23.6484 58.1959 23.4015 58.5384 22.8552C58.7733 22.4799 58.9637 21.9658 59.0928 21.2846C59.1144 19.8388 59.1459 18.399 59.1775 16.9594C59.2772 12.4023 59.377 7.84621 59.1529 3.28802C58.9668 3.21821 58.7921 3.14341 58.6179 3.06861C58.1598 2.8725 57.7011 2.67612 57.0786 2.60187L56.6583 2.55166L56.7758 2.12044C56.8528 1.83799 56.4633 1.43635 56.1387 1.10192C56.0238 0.983471 55.9149 0.871243 55.824 0.762498C54.5274 0.704983 53.6851 1.29488 52.8286 1.89476L52.8288 1.89551L52.6288 2.03567V2.03581ZM51.7542 8.66638C51.8645 6.3328 51.9752 3.99656 51.9119 1.84523L51.9052 1.63L52.0748 1.5147C52.2034 1.42733 52.3198 1.3455 52.4355 1.26442H52.437C53.43 0.568574 54.4055 -0.114975 56.0273 0.0163114L56.1923 0.0296312L56.2894 0.171642C56.3616 0.277518 56.493 0.413244 56.6351 0.559694C57.0025 0.938115 57.4279 1.37685 57.4914 1.9009C58.0396 2.00521 58.4616 2.18595 58.8831 2.36635C59.117 2.46676 59.3514 2.56717 59.6 2.649L59.8375 2.72769L59.8513 2.98999C60.0931 7.65038 59.9909 12.3121 59.8887 16.9744C59.8569 18.4304 59.8248 19.8869 59.8037 21.3369L59.803 21.377L59.7981 21.4036C59.6499 22.1999 59.4206 22.8128 59.1326 23.273C58.6529 24.039 58.0196 24.3854 57.3217 24.4474C56.662 24.5062 55.9529 24.2994 55.2731 23.954C54.2968 23.4579 53.3709 22.6693 52.7498 21.9886L52.7046 21.9391L52.6787 21.8759C51.2885 18.5075 51.5214 13.5908 51.7543 8.66631L51.7542 8.66638Z" fill="#2B2A29"/>
<path d="M12.2631 24.8729C12.4019 26.6576 12.1614 28.6606 11.9318 30.5704C11.6822 32.6509 11.4457 34.6184 11.7477 35.9889C13.0207 36.9248 13.1076 37.9371 13.1887 38.8855C13.2808 39.9587 13.3647 40.931 16.206 41.477C18.1781 40.9981 19.9678 40.4702 21.662 39.8015C23.356 39.1331 24.9594 38.3228 26.5606 37.2789C27.7252 35.7583 28.2565 34.0711 28.4296 32.3156C28.6028 30.5609 28.4213 28.7287 28.1546 26.9201C27.8909 26.701 27.6402 26.4654 27.3896 26.2295C26.5572 25.4466 25.7185 24.6579 24.5132 24.6822C23.9567 24.9796 23.3707 25.3153 22.8778 25.7C22.4306 26.0496 22.0655 26.4359 21.8888 26.8616C21.9234 27.0407 21.9636 27.2303 22.0085 27.4424C22.3266 28.9442 22.8762 31.5379 22.5605 34.1781L22.5488 34.2759L22.4964 34.353C21.7243 35.4843 20.3435 35.3637 19.1707 35.2614H19.1695C18.9989 35.2465 18.8342 35.2319 18.7208 35.2245L18.5397 35.2125L18.4416 35.0496C17.1874 32.9658 17.3258 30.8664 17.4643 28.7729C17.5118 28.0503 17.5599 27.3281 17.5474 26.6244C17.4648 26.5957 17.3596 26.6064 17.2518 26.6171C16.9025 26.6521 16.5405 26.6888 16.1673 26.2515L16.0963 26.1689L16.0795 26.0572C16.0374 25.7834 16.0277 25.5188 16.0182 25.2646C15.9908 24.5256 15.9672 23.8973 14.6713 23.7442C14.0838 23.8876 13.3928 24.1313 12.8752 24.4121C12.5474 24.5894 12.308 24.7562 12.263 24.8728L12.2631 24.8729ZM11.226 30.4757C11.4525 28.5911 11.69 26.6139 11.5474 24.8836L11.5446 24.8478L11.5502 24.802C11.6005 24.3991 12.0014 24.034 12.5516 23.7362C13.1343 23.4203 13.9191 23.147 14.5743 22.9925L14.63 22.9796L14.6859 22.9854C16.6534 23.1917 16.6884 24.1294 16.7294 25.235C16.7362 25.4223 16.7434 25.6158 16.765 25.8067C16.8896 25.8941 17.0396 25.8789 17.185 25.8642C17.5152 25.831 17.8353 25.7986 18.1592 26.1683L18.2492 26.2713L18.254 26.4128C18.281 27.2255 18.2283 28.0244 18.1755 28.8233C18.0491 30.738 17.9225 32.6579 18.9478 34.4821C19.047 34.4897 19.1372 34.4976 19.228 34.5054V34.5057C20.1867 34.5894 21.3102 34.6866 21.8667 33.9796C22.14 31.5074 21.6178 29.0433 21.314 27.6084C21.2532 27.3213 21.2003 27.0732 21.1683 26.8993L21.1495 26.797L21.1835 26.6976C21.3986 26.0726 21.8738 25.5447 22.4565 25.0894C23.0056 24.6606 23.6564 24.2923 24.2658 23.9689L24.3343 23.9326L24.4095 23.9289C25.9402 23.8567 26.904 24.7633 27.861 25.6634C28.1378 25.9239 28.4142 26.1838 28.6974 26.4103L28.8128 26.5028L28.8357 26.6532C29.1222 28.5639 29.3238 30.5094 29.138 32.3928C28.9494 34.3049 28.3642 36.1451 27.0726 37.8076L27.0348 37.8563L26.985 37.889C25.3246 38.9769 23.6644 39.8178 21.9105 40.51C20.1594 41.2009 18.318 41.7427 16.2904 42.2328L16.2193 42.2501L16.1509 42.2372C12.707 41.5934 12.5992 40.3392 12.4805 38.9538C12.4121 38.1534 12.3384 37.2978 11.2411 36.5386L11.1259 36.4589L11.0903 36.3192C10.706 34.8064 10.9587 32.7037 11.2261 30.4758L11.226 30.4757Z" fill="#2B2A29"/>
<path d="M34.3168 22.454C32.791 23.2644 32.0275 24.6226 31.3233 25.8765C31.1885 26.1163 31.0553 26.3523 30.9257 26.5726C31.004 26.9164 31.0952 27.1427 31.2341 27.2823C31.3912 27.4402 31.6462 27.5247 32.0504 27.5819L32.371 27.6274L32.36 27.9687C32.3029 29.7432 32.3239 31.4641 32.4594 33.1547C32.5914 34.8027 32.8317 36.4127 33.2133 38.0031C33.6475 38.4592 34.0341 38.6854 34.4137 38.9071C34.7575 39.1082 35.0964 39.3064 35.4744 39.6576L35.506 39.6872L35.5301 39.723C35.8604 40.2154 35.9135 40.6513 35.9636 41.0626C36.0127 41.4687 36.0587 41.8424 36.5593 42.1904C37.1364 42.2419 37.6779 42.2658 38.2077 42.2262C38.6899 42.1899 39.1684 42.1012 39.6642 41.9329C39.7272 41.0022 39.5539 40.1539 39.3866 39.3349C39.2058 38.4518 39.032 37.6001 39.1352 36.6686L39.1672 36.3813L39.4364 36.3381C44.0446 35.6022 46.5608 33.9794 47.9816 32.1322C49.3782 30.3165 49.7323 28.2544 49.9774 26.6151C49.6652 24.3091 47.0751 23.4303 44.155 23.1845C41.0914 22.9261 37.6751 23.3699 35.9862 23.6191L35.5434 23.6845L35.582 23.2115C35.5845 23.1796 35.5848 23.15 35.5827 23.1233C35.571 22.9597 35.478 22.8171 35.3328 22.7078C35.1546 22.5737 34.9014 22.4869 34.6113 22.4599V22.4597C34.5155 22.4513 34.4168 22.4489 34.3169 22.4539L34.3168 22.454ZM30.7124 25.4881C31.4786 24.1239 32.31 22.6446 34.0697 21.7396L34.1312 21.7079L34.1981 21.7027C34.3605 21.6896 34.5195 21.6904 34.6712 21.7043H34.6725C35.0838 21.7422 35.4593 21.8779 35.743 22.0916C35.9922 22.2791 36.1719 22.5241 36.2515 22.8164C38.0632 22.5594 41.2871 22.1825 44.2105 22.4287C47.4622 22.703 50.3523 23.7518 50.6899 26.5713L50.6963 26.6252L50.6883 26.678C50.4293 28.4182 50.0629 30.625 48.534 32.6124C47.0432 34.5501 44.4609 36.2514 39.822 37.0419C39.7925 37.7501 39.9356 38.4514 40.0835 39.1752C40.2773 40.1224 40.4783 41.1067 40.3512 42.2546L40.3255 42.4876L40.1171 42.5674C39.4741 42.8133 38.8673 42.9364 38.2579 42.9822C37.6533 43.0277 37.0521 42.9982 36.414 42.9388L36.3336 42.9315L36.2622 42.8855C35.4008 42.3355 35.3322 41.772 35.2575 41.1575C35.2201 40.8503 35.1804 40.5247 34.973 40.1968C34.6687 39.9214 34.3717 39.7472 34.0707 39.5715C33.627 39.3124 33.1745 39.0478 32.6373 38.4609L32.5717 38.3896L32.548 38.292C32.14 36.6179 31.8855 34.9338 31.7479 33.2171C31.6196 31.6129 31.5933 29.9709 31.6389 28.2753C31.2525 28.1898 30.9698 28.0562 30.7458 27.8308C30.4651 27.5486 30.3123 27.16 30.1966 26.5811L30.1661 26.4289L30.2454 26.2979C30.4094 26.027 30.5597 25.7597 30.7122 25.4883L30.7124 25.4881ZM37.4246 31.4944C36.9055 30.7304 36.6281 30.0029 36.6062 29.2021C36.5846 28.4153 36.8124 27.579 37.3028 26.5877L37.3951 26.401L37.5944 26.3861C39.2441 26.2637 40.5613 26.2907 41.7424 26.4575C42.9284 26.6248 43.9708 26.9323 45.0691 27.3698L45.5762 27.572L45.2015 27.9865C44.4088 28.8641 43.3402 29.5829 42.1675 30.1587C40.7631 30.848 39.2008 31.3351 37.7843 31.644L37.5595 31.6932L37.4245 31.4945L37.4246 31.4944ZM37.3173 29.1815C37.333 29.7505 37.5204 30.2868 37.8713 30.8519C39.1755 30.5526 40.5905 30.0986 41.8691 29.471C42.7749 29.0262 43.6093 28.4956 44.2813 27.8729C43.424 27.5625 42.5827 27.339 41.6507 27.2074C40.5675 27.0544 39.354 27.0249 37.8431 27.1276C37.4729 27.9176 37.3008 28.5784 37.3173 29.1814L37.3173 29.1815Z" fill="#2B2A29"/>
</svg>
