<svg width="16" height="16" viewBox="0 0 16 16" fill="none" xmlns="http://www.w3.org/2000/svg">
<g clip-path="url(#clip0)">
<path d="M8.21733 -7.62939e-06C3.83133 0.000659037 1.5 2.81066 1.5 5.87466C1.5 7.29532 2.294 9.06799 3.56533 9.62999C3.928 9.79332 3.88 9.59399 4.192 8.40066C4.21667 8.30132 4.204 8.21532 4.124 8.12266C2.30667 6.02066 3.76933 1.69933 7.958 1.69933C14.02 1.69933 12.8873 10.0873 9.01266 10.0873C8.014 10.0873 7.27 9.30332 7.50533 8.33332C7.79066 7.17799 8.34933 5.93599 8.34933 5.10332C8.34933 3.00466 5.22266 3.31599 5.22266 6.09666C5.22266 6.95599 5.52666 7.53599 5.52666 7.53599C5.52666 7.53599 4.52067 11.6 4.334 12.3593C4.018 13.6447 4.37667 15.7253 4.408 15.9047C4.42733 16.0033 4.538 16.0347 4.6 15.9533C4.69933 15.8233 5.91533 14.0887 6.256 12.8347C6.38 12.378 6.88866 10.5247 6.88866 10.5247C7.224 11.13 8.19066 11.6367 9.22066 11.6367C12.2847 11.6367 14.4993 8.94332 14.4993 5.60132C14.4887 2.39732 11.7467 -7.62939e-06 8.21733 -7.62939e-06V-7.62939e-06Z" fill="white"/>
</g>
<defs>
<clipPath id="clip0">
<rect width="16" height="16" fill="white"/>
</clipPath>
</defs>
</svg>
