<svg width="25" height="25" viewBox="0 0 25 25" fill="none" xmlns="http://www.w3.org/2000/svg">
<path d="M2.86206 0H21.8276C22.3037 0 22.6896 0.385938 22.6896 0.862061V24.1379C22.6896 24.6141 22.3037 25 21.8276 25H2.86206C2.38594 25 2 24.614 2 24.1379V0.862061C2 0.385938 2.38594 0 2.86206 0Z" fill="#E6E7E8"/>
<path d="M16.1293 14.6207C15.3544 15.287 14.2406 15.3841 13.362 14.8621V16.0689C13.5382 16.3418 13.7615 16.5812 14.0215 16.7758C14.1568 16.8954 14.2312 17.0695 14.2241 17.2499V17.4568C14.25 17.7235 14.0589 17.9623 13.793 17.9956H11.2068C10.9409 17.9623 10.7499 17.7235 10.7758 17.4568V17.2499C10.7687 17.0695 10.843 16.8954 10.9783 16.7758C11.2384 16.5811 11.4616 16.3418 11.6378 16.0689V14.8621C10.7593 15.3841 9.64548 15.287 8.87058 14.6207C7.96111 13.7716 7.96111 12.0819 8.87058 10.3879C9.50422 9.12069 11.1378 7.84916 12.4999 7.00429C13.8619 7.84911 15.4956 9.12065 16.1292 10.3879C17.0387 12.0819 17.0387 13.7715 16.1293 14.6207Z" fill="#35495E"/>
<path d="M6.26132 6.6722C5.99062 6.2327 5.61689 5.86586 5.17241 5.60345C4.72793 5.86586 4.35415 6.2327 4.0835 6.6722C3.81128 7.20658 3.81128 7.74095 4.0835 8.00814C4.2606 8.17142 4.51084 8.2288 4.7414 8.15897V9.05175C4.7414 9.28978 4.93437 9.4828 5.17246 9.4828C5.4105 9.4828 5.60351 9.28983 5.60351 9.05175V8.15897C5.83403 8.2288 6.08432 8.17142 6.26142 8.00814C6.53359 7.74095 6.53359 7.20658 6.26132 6.6722Z" fill="#35495E"/>
<path d="M20.9165 16.5608C20.7394 16.3976 20.4892 16.3402 20.2586 16.41V15.5172C20.2586 15.2792 20.0656 15.0862 19.8276 15.0862C19.5895 15.0862 19.3965 15.2792 19.3965 15.5172V16.41C19.166 16.3401 18.9157 16.3975 18.7386 16.5608C18.4664 16.828 18.4664 17.3624 18.7386 17.8968C19.0092 18.3363 19.383 18.7031 19.8275 18.9655C20.272 18.7031 20.6458 18.3363 20.9164 17.8968C21.1888 17.3624 21.1888 16.828 20.9165 16.5608Z" fill="#35495E"/>
<path d="M5.83877 1.58437C5.77905 1.41015 5.61528 1.29311 5.4311 1.29306H4.91377C4.72959 1.29306 4.56577 1.4101 4.5061 1.58437L3.47163 4.60161C3.39497 4.82661 3.51499 5.07114 3.73984 5.14824C3.96469 5.22534 4.20947 5.1058 4.28701 4.8811L4.48271 4.3103H5.86215L6.05786 4.8811C6.10757 5.02704 6.23144 5.1353 6.38271 5.16503C6.53398 5.19477 6.6896 5.1414 6.79087 5.02514C6.89209 4.90888 6.92348 4.74736 6.87324 4.60161L5.83877 1.58437ZM4.77827 3.44829L5.17241 2.29872L5.56655 3.44829H4.77827Z" fill="#35495E"/>
<path d="M21.2605 19.8509C21.1524 19.8136 21.0338 19.8209 20.9311 19.8712C20.8284 19.9215 20.7499 20.0106 20.7131 20.1189L20.5174 20.6897H19.1379L18.9422 20.1189C18.8925 19.9729 18.7686 19.8647 18.6174 19.835C18.4661 19.8052 18.3105 19.8586 18.2093 19.9749C18.108 20.0911 18.0766 20.2526 18.1269 20.3984L19.1613 23.4156C19.221 23.5898 19.3848 23.7069 19.569 23.7069H20.0863C20.2705 23.7069 20.4343 23.5899 20.494 23.4156L21.5284 20.3984C21.5655 20.2903 21.5581 20.1718 21.5079 20.0692C21.4576 19.9665 21.3686 19.888 21.2605 19.8509ZM19.8276 22.7013L19.4335 21.5517H20.2218L19.8276 22.7013Z" fill="#35495E"/>
</svg>
