<svg id="Capa_1" enable-background="new 0 0 511.983 511.983" height="512" viewBox="0 0 511.983 511.983" width="512" xmlns="http://www.w3.org/2000/svg"><g><path d="m352.524 342.045h-185.932c-16.689 0-30.218-13.529-30.218-30.218v-274.109c0-16.689 13.529-30.218 30.218-30.218h185.932c16.689 0 30.218 13.529 30.218 30.218v274.11c0 16.688-13.529 30.217-30.218 30.217z" fill="#d4d4ff"/><path d="m382.742 311.828v-214.391c-25.596-19.889-62.531-18.088-86.05 5.431l-11.489 11.49c-8.924-25.395-33.146-43.65-61.553-43.65h-87.276v241.12c0 16.689 13.529 30.218 30.217 30.218h185.932c16.69-.001 30.219-13.529 30.219-30.218z" fill="#9ea2e3"/><path d="m173.726 297.684v-245.822c0-3.872 3.139-7.01 7.01-7.01h157.644c3.872 0 7.01 3.139 7.01 7.01v245.821c0 3.872-3.139 7.01-7.01 7.01h-157.644c-3.871.001-7.01-3.138-7.01-7.009z" fill="#6fce91"/><path d="m345.391 297.683v-213.87c-17.536-.691-35.297 5.654-48.698 19.055l-11.489 11.49c-8.924-25.395-33.146-43.65-61.553-43.65h-49.924v226.976c0 3.872 3.139 7.01 7.01 7.01h157.643c3.872 0 7.011-3.139 7.011-7.011z" fill="#4dc176"/><path d="m259.09 495.65-131.474-131.474c-11.801-11.801-11.801-30.933 0-42.734l193.825-193.825c11.801-11.801 30.933-11.801 42.734 0l131.475 131.473c11.801 11.801 11.801 30.933 0 42.734l-193.826 193.826c-11.8 11.8-30.933 11.8-42.734 0z" fill="#efedff"/><path d="m288.867 410.035v-249.844l-161.251 161.251c-11.801 11.801-11.801 30.933 0 42.734l109.639 109.639c29.451-6.277 51.612-32.485 51.612-63.78z" fill="#d4d4ff"/><path d="m268.021 247.135c-24.72 22.656-25.189 70.707-14.571 113.15 1.176 4.701 4.829 8.354 9.53 9.53 42.443 10.617 90.494 10.149 113.15-14.571 16.503-18.007 15.319-46.399-2.48-63.126-8.523-8.01-19.404-12.066-30.319-12.184-.119-10.915-4.174-21.796-12.184-30.319-16.726-17.799-45.119-18.983-63.126-2.48z" fill="#e26e7e"/><path d="m288.867 236.457c-7.563 1.591-14.792 5.131-20.846 10.679-24.72 22.656-25.189 70.707-14.571 113.15 1.176 4.701 4.829 8.354 9.53 9.53 8.488 2.123 17.199 3.793 25.887 4.925z" fill="#d9495d"/><path d="m223.65 440.253h-185.932c-16.689 0-30.218-13.529-30.218-30.218v-274.11c0-16.689 13.529-30.218 30.218-30.218h185.932c16.689 0 30.218 13.529 30.218 30.218v274.11c-.001 16.689-13.529 30.218-30.218 30.218z" fill="#efedff"/><g><path d="m157.257 357.773c-5.931-13.957-8.254-30.917-8.254-49.976h-36.639c0 19.06-2.323 36.019-8.254 49.976-2.705 6.366 2.056 13.415 8.973 13.415h35.2c6.918 0 11.68-7.049 8.974-13.415z" fill="#605ac2"/><path d="m51.797 282.593c-.24 24.901 20.038 45.85 44.938 45.545 10.286-.126 19.727-3.754 27.192-9.745 3.918-3.145 9.595-3.145 13.514 0 7.465 5.991 16.906 9.618 27.192 9.745 24.9.306 45.178-20.644 44.938-45.545-.507-52.672-35.531-73.882-60.565-100.003-9.989-10.423-26.656-10.423-36.645 0-25.034 26.121-60.058 47.331-60.564 100.003z" fill="#807bcf"/></g><path d="m500.953 253.787-110.711-110.71v-105.36c0-20.797-16.92-37.717-37.718-37.717h-185.932c-20.798 0-37.718 16.92-37.718 37.717v60.49h-50.31c-4.143 0-7.5 3.358-7.5 7.5s3.357 7.5 7.5 7.5h145.085c12.526 0 22.718 10.191 22.718 22.717v274.11c0 12.526-10.191 22.717-22.718 22.717h-185.931c-12.527.002-22.718-10.189-22.718-22.716v-274.11c0-12.526 10.191-22.717 22.718-22.717h4.459c4.143 0 7.5-3.358 7.5-7.5s-3.357-7.5-7.5-7.5h-4.459c-20.798 0-37.718 16.92-37.718 37.717v274.11c0 20.797 16.92 37.717 37.718 37.717h162.869l53.2 53.2c14.705 14.704 38.633 14.709 53.342 0l46.378-46.377c2.929-2.929 2.929-7.678 0-10.607s-7.677-2.929-10.607 0l-46.378 46.377c-8.877 8.878-23.249 8.879-32.127 0l-42.595-42.592h1.849c20.798 0 37.718-16.92 37.718-37.717v-32.895c38.683 9.642 93.248 12.679 120.293-16.829 19.266-21.021 17.977-54.064-2.873-73.659-7.915-7.438-17.841-12.177-28.481-13.693-1.517-10.64-6.254-20.566-13.692-28.481-19.795-21.063-53.941-22.502-75.246-1.346v-44.836l65.377-65.378c8.857-8.857 23.27-8.858 32.128 0l131.474 131.474c8.858 8.858 8.858 23.27 0 32.128l-122.17 122.169c-2.929 2.929-2.929 7.678 0 10.607 2.93 2.929 7.678 2.929 10.607 0l122.169-122.168c14.706-14.707 14.706-38.636 0-53.342zm-227.864-1.122c14.999-13.747 38.592-12.812 52.594 2.087 6.442 6.855 10.047 15.827 10.149 25.265.045 4.078 3.34 7.373 7.419 7.418 9.436.102 18.408 3.707 25.264 10.15 14.898 14 15.834 37.594 2.087 52.594-13.995 15.271-49.139 26.537-105.801 12.363-1.456-.364-2.679-1.298-3.434-2.564v-90.135c2.998-7.002 6.929-12.787 11.722-17.178zm64.802-141.053c-7.96 1.038-15.65 4.6-21.753 10.701l-54.771 54.77v-41.159c0-20.797-16.92-37.717-37.718-37.717h-42.424v-45.855h156.665v59.26zm37.351 16.465c-3.839-3.243-9.33-11.831-22.352-15.421v-60.794c0-8.001-6.51-14.511-14.511-14.511h-157.643c-8.001 0-14.511 6.509-14.511 14.511v46.345h-22.352v-60.49c0-12.526 10.191-22.717 22.718-22.717h185.933c12.526 0 22.718 10.191 22.718 22.717zm-158.171 154.444c-.445-46.244-25.959-70.203-48.47-91.341-5.009-4.704-9.74-9.146-14.181-13.78-12.905-13.463-34.469-13.569-47.475 0-4.44 4.633-9.171 9.076-14.18 13.779-22.511 21.138-48.024 45.097-48.47 91.341-.295 30.812 26.419 56.714 58.455 52.705-1.259 7.335-3.083 13.828-5.542 19.614-4.794 11.279 3.558 23.848 15.876 23.848h35.2c12.301 0 20.675-12.556 15.875-23.848-2.46-5.789-4.29-12.276-5.549-19.615 32.034 4.012 58.756-21.886 58.461-52.703zm-68.787 81.167h-35.2c-1.542 0-2.678-1.554-2.071-2.982 3.719-8.751 6.208-18.654 7.584-30.144 3.53-1.7 6.891-3.805 10.023-6.319 1.178-.943 2.949-.944 4.127 0 3.133 2.514 6.493 4.62 10.023 6.319 1.376 11.49 3.865 21.393 7.584 30.145.605 1.421-.52 2.981-2.07 2.981zm-6.149-51.144c-6.635-5.325-16.268-5.324-22.902 0-6.735 5.405-14.77 8.098-23.036 8.098-20.618-.001-37.097-17.568-36.899-37.976.383-39.839 21.442-59.615 43.737-80.551 4.931-4.629 10.028-9.417 14.742-14.335 7.017-7.321 18.744-7.377 25.814 0 25.701 26.816 58.007 45.643 58.48 94.886.197 20.371-16.34 38.232-37.347 37.973-8.305-.102-16.117-2.902-22.589-8.095z"/></g></svg>