<svg width="25" height="25" viewBox="0 0 25 25" fill="none" xmlns="http://www.w3.org/2000/svg">
<g clip-path="url(#clip0)">
<path d="M24.6132 2.48337C24.3078 2.10991 23.8504 1.9043 23.3252 1.9043C23.0396 1.9043 22.7371 1.96438 22.4262 2.08321L1.2642 10.1614C0.141153 10.59 -0.0101002 11.2331 -0.00037275 11.5784C0.00935472 11.9236 0.196847 12.5572 1.3424 12.9217C1.34927 12.9238 1.35613 12.9259 1.363 12.9278L5.75257 14.184L8.12646 20.9722C8.45014 21.8977 9.17664 22.4726 10.0227 22.4726C10.5562 22.4726 11.0809 22.249 11.5402 21.8264L14.2553 19.3264L18.1934 22.4974C18.1938 22.4977 18.1944 22.4979 18.1948 22.4983L18.2322 22.5285C18.2356 22.5311 18.2392 22.534 18.2427 22.5367C18.6804 22.8762 19.1582 23.0555 19.6249 23.0556H19.6251C20.537 23.0556 21.2631 22.3806 21.4747 21.3362L24.942 4.21505C25.0813 3.52783 24.9645 2.9129 24.6132 2.48337ZM7.22104 13.9454L15.6899 9.61895L10.4166 15.2222C10.3302 15.3139 10.269 15.4263 10.2388 15.5485L9.22204 19.6672L7.22104 13.9454ZM10.5478 20.7487C10.5127 20.7809 10.4775 20.8097 10.4422 20.8363L11.3855 17.0155L13.1016 18.3973L10.5478 20.7487ZM23.5064 3.92418L20.039 21.0455C20.0056 21.2093 19.899 21.5906 19.6249 21.5906C19.4895 21.5906 19.3194 21.5168 19.1452 21.3827L14.6828 17.7896C14.6822 17.7891 14.6814 17.7885 14.6807 17.7881L12.0255 15.65L19.6512 7.547C19.8954 7.2876 19.9175 6.8903 19.7037 6.60534C19.4897 6.32038 19.1019 6.23073 18.7847 6.39286L6.24238 12.8004L1.79311 11.5274L22.9487 3.45173C23.1274 3.38345 23.2521 3.36914 23.3252 3.36914C23.37 3.36914 23.4497 3.37448 23.4793 3.41091C23.5182 3.4584 23.5678 3.62034 23.5064 3.92418Z" fill="white"/>
</g>
<defs>
<clipPath id="clip0">
<rect width="25" height="25" fill="white"/>
</clipPath>
</defs>
</svg>
